<?xml version="1.0" encoding="utf-8"?>
<!-- Generator: Adobe Illustrator 23.1.1, SVG Export Plug-In . SVG Version: 6.00 Build 0)  -->
<svg version="1.1" id="Layer_1" xmlns="http://www.w3.org/2000/svg" xmlns:xlink="http://www.w3.org/1999/xlink" x="0px" y="0px"
	 viewBox="0 0 156 45" style="enable-background:new 0 0 156 45;" xml:space="preserve">
<style type="text/css">
	.st0{fill:#0A2240;}
	.st1{fill:#238DC1;}
	.st2{fill:#45526C;}
</style>
<path class="st0" d="M17.33,14.52c-1.23,0.71-1.26,14.59,0,15.32c1.26,0.73,13.27-6.15,13.27-7.66
	C30.6,20.67,18.56,13.8,17.33,14.52z"/>
<g>
	<path class="st1" d="M4.35,9c3.26-2.44,7.3-3.89,11.68-3.89c9.26,0,17,6.46,18.99,15.12c4.22-6.25,1.36-14.15,0.75-15.66
		C32.02,1.7,27.34,0,22.26,0C14.92,0,8.42,3.54,4.35,9z"/>
	<path class="st1" d="M42.67,13.37c0.49,4.04-0.28,8.27-2.47,12.06c-4.63,8.02-14.1,11.5-22.59,8.88c3.3,6.78,11.57,8.26,13.19,8.48
		c4.35-1.82,8.17-5.02,10.71-9.42C45.17,27.02,45.36,19.62,42.67,13.37z"/>
	<path class="st1" d="M19.74,44.35c-3.74-1.6-7.02-4.37-9.21-8.17c-4.63-8.02-2.91-17.96,3.6-24C6.6,11.65,1.19,18.08,0.18,19.36
		c-0.6,4.68,0.27,9.58,2.81,13.98C6.66,39.7,12.97,43.56,19.74,44.35z"/>
</g>
<g>
	<path class="st2" d="M64.38,36c0,0.66-0.32,1.3-1.11,1.65c1,0.31,1.37,1.37,1.37,1.91c0,1.91-1.43,2.52-3.21,2.52
		c-1.36,0-2.71,0-4.07,0v-8.58c1.35,0,2.71,0,4.07,0C63.12,33.51,64.38,34.27,64.38,36z M58.95,36.95h2.48
		c1.02,0,1.35-0.43,1.35-0.92c0-0.39-0.32-1.06-1.35-1.06h-2.48V36.95z M58.95,40.58h2.48c0.66,0,1.6-0.22,1.6-1.03
		c0-0.77-0.94-1.17-1.6-1.17h-2.48V40.58z"/>
	<path class="st2" d="M68.62,33.51v7.08h4.41v1.5H67v-8.58H68.62z"/>
	<path class="st2" d="M81.78,42.09h-6.42c0-2.86,0-5.72,0-8.58h6.42v1.57h-4.81v1.97h4.64v1.5h-4.64v1.94h4.81V42.09z"/>
	<path class="st2" d="M90.15,33.5h1.62v8.59h-1v0.01l-4.51-5.79v5.78h-1.62v-8.58h1.31l4.2,5.32V33.5z"/>
	<path class="st2" d="M102.02,37.72c0.04,2.17-1.29,4.36-4.29,4.36c-1.05,0-2.31,0-3.37,0v-8.58c1.05,0,2.32,0,3.37,0
		C100.67,33.51,101.98,35.6,102.02,37.72z M95.97,40.53h1.76c1.95,0,2.72-1.42,2.68-2.82c-0.04-1.34-0.82-2.67-2.68-2.67h-1.76
		V40.53z"/>
	<path class="st2" d="M110.7,42.09h-6.42c0-2.86,0-5.72,0-8.58h6.42v1.57h-4.81v1.97h4.64v1.5h-4.64v1.94h4.81V42.09z"/>
	<path class="st2" d="M120.78,42.09h-1.92l-2.5-2.87h-1.56v2.87h-1.62V33.5c1.36,0,2.72,0.01,4.08,0.01
		c2.02,0.01,3.09,1.36,3.09,2.84c0,1.18-0.54,2.37-2.17,2.69l2.6,2.93V42.09z M114.81,35.02v2.74h2.46c1.03,0,1.47-0.68,1.47-1.37
		c0-0.69-0.45-1.37-1.47-1.37H114.81z"/>
</g>
<g>
	<path class="st0" d="M73.63,10.29c0,3.03-4.59,3.03-4.59,0C69.04,7.26,73.63,7.26,73.63,10.29z M69.39,14.75v15.68h3.89V14.75
		H69.39z"/>
	<path class="st0" d="M82.56,10.29v4.46h4.33v3.35h-4.37v6.79c0,1.5,0.83,2.23,2.04,2.23c0.61,0,1.31-0.19,1.88-0.48l1.08,3.31
		c-1.12,0.45-2.04,0.64-3.22,0.67c-3.41,0.13-5.64-1.82-5.64-5.74V18.1h-2.93v-3.35h2.93v-4.05L82.56,10.29z"/>
	<path class="st0" d="M101.36,30.44v-8.22c0-2.39-1.31-4.21-3.79-4.21c-2.39,0-4.02,2.01-4.02,4.4v8.03H89.7V14.75h3.47l0.25,2.07
		c1.59-1.56,3.19-2.36,5.16-2.36c3.7,0,6.66,2.77,6.66,7.71v8.26H101.36z"/>
	<path class="st0" d="M111.91,23.97c0.25,1.95,1.95,3.35,4.69,3.35c1.43,0,3.31-0.54,4.21-1.47l2.49,2.45
		c-1.66,1.72-4.37,2.55-6.76,2.55c-5.42,0-8.64-3.35-8.64-8.38c0-4.78,3.25-8.22,8.35-8.22c5.26,0,8.55,3.25,7.94,9.72H111.91z
		 M120.46,20.75c-0.25-2.04-1.85-3.06-4.08-3.06c-2.1,0-3.82,1.02-4.4,3.06H120.46z"/>
	<path class="st0" d="M137.45,18.9c-1.12-1.05-2.39-1.4-3.89-1.4c-1.85,0-2.87,0.57-2.87,1.56c0,1.02,0.93,1.59,2.93,1.72
		c2.97,0.19,6.73,0.86,6.73,5.03c0,2.78-2.26,5.17-6.76,5.17c-2.49,0-4.97-0.41-7.27-2.81l1.91-2.77c1.12,1.24,3.67,2.17,5.42,2.2
		c1.47,0.03,2.84-0.73,2.84-1.88c0-1.08-0.89-1.53-3.13-1.66c-2.96-0.22-6.5-1.31-6.5-4.88c0-3.63,3.76-4.91,6.63-4.91
		c2.46,0,4.3,0.48,6.12,2.07L137.45,18.9z"/>
	<path class="st0" d="M153.1,18.9c-1.12-1.05-2.39-1.4-3.89-1.4c-1.85,0-2.87,0.57-2.87,1.56c0,1.02,0.92,1.59,2.93,1.72
		c2.96,0.19,6.73,0.86,6.73,5.03c0,2.78-2.26,5.17-6.76,5.17c-2.49,0-4.97-0.41-7.27-2.81l1.91-2.77c1.12,1.24,3.67,2.17,5.42,2.2
		c1.47,0.03,2.84-0.73,2.84-1.88c0-1.08-0.89-1.53-3.12-1.66c-2.96-0.22-6.5-1.31-6.5-4.88c0-3.63,3.76-4.91,6.63-4.91
		c2.45,0,4.3,0.48,6.12,2.07L153.1,18.9z"/>
	<path class="st0" d="M61.21,12.04c0-1.66,1.19-2.65,2.38-2.89c0.18-0.03,0.35-0.06,0.54-0.06c0.95,0,1.76,0.26,2.4,0.62l1.54-3.09
		c-1.1-0.62-2.48-1.07-3.68-1.07c-1.89,0-4.07,0.32-5.59,2.17c-0.04,0.05-0.09,0.1-0.13,0.15c-0.03,0.04-0.06,0.06-0.09,0.1l0,0.01
		c-0.78,0.99-1.26,2.32-1.26,4.05v2.71h-1.9v3.35h1.9v12.34h3.89V18.1h5.55v-3.35h-5.55V12.04z"/>
</g>
</svg>
